<svg height="24" viewBox="0 0 24 24" width="24" xmlns="http://www.w3.org/2000/svg"><path d="m8.5 4c2.1880996 0 4.1236769 2.56725359 5.3016474 5.38507756.8661363-1.39132673 1.9814788-2.4235391 3.1983526-2.4235391 2.7614237 0 5 5.31549934 5 8.07692304 0 2.7614238-2.2385763 5-5 5-1.3528388 0-2.58019-.5372765-3.4803155-1.4100917-1.190494 1.4479445-2.9972201 2.3716302-5.0196845 2.3716302-3.58985087 0-6.5-2.9101491-6.5-6.5 0-.9137802.18855842-2.0426938.52888881-3.2180114l.15504079-.5060567c1.06676994-3.30144039 3.27053978-6.7759319 5.8160704-6.7759319zm0 17c3.5898509 0 6.5-2.9101491 6.5-6.5 0-.9137802-.1885584-2.0426938-.5288888-3.2180114l-.1550408-.5060567c-1.0667699-3.30144039-3.2705398-6.7759319-5.8160704-6.7759319-2.54553062 0-4.74930046 3.47449151-5.8160704 6.7759319l-.15504079.5060567c-.34033039 1.1753176-.52888881 2.3042312-.52888881 3.2180114 0 3.5898509 2.91014913 6.5 6.5 6.5z" fill="none" stroke="#000" stroke-linecap="round"/></svg>