<svg height="24" viewBox="0 0 24 24" width="24" xmlns="http://www.w3.org/2000/svg"><path d="m15 21.5c0 .8284271-.6715729 1.5-1.5 1.5-.6528467 0-1.2082819-.4170681-1.4143985-.999297h-.171203c-.2061166.5822289-.7615518.999297-1.4143985.999297-.82842712 0-1.5-.6715729-1.5-1.5s.67157288-1.5 1.5-1.5c.1755804 0 .3441149.0301673.500703.0856015l-.000703-3.0856015h2l.0002925 3.0852495c.1563068-.0552099.3244991-.0852495.4997075-.0852495.8284271 0 1.5.6715729 1.5 1.5zm-3-19.5c3.3137085 0 6 2.6862915 6 6 0 1.24718781-.7096186 2.9098371-2.1288558 4.9879478-.5669554.8301453-.8705033 1.8119158-.8710401 2.8171917l-.0001041.1948605c0 .5522847-.4477153 1-1 1h-4c-.55228475 0-1-.4477153-1-1v-.1924188c.00003272-1.0063541-.30361917-1.9892952-.87123899-2.8202923-1.41917401-2.0776752-2.12876101-3.74010485-2.12876101-4.9872889 0-3.3137085 2.6862915-6 6-6z" fill="none" stroke="#000" stroke-linecap="round" transform="matrix(.70710678 .70710678 -.70710678 .70710678 12.353553 -4.824116)"/></svg>