<svg height="24" viewBox="0 0 24 24" width="24" xmlns="http://www.w3.org/2000/svg"><path d="m8.30755459 10.5115516.92873225-1.47498318c.81444976-1.29348325 1.33795356-2.74856928 1.53424346-4.26445105l.2294697-1.77211737h3l.2074647 1.65971731c.1927069 1.5416554.7191009 3.02278766 1.5425353 4.34028269l.9459966 1.5135946c.1986645.3178632.3040034.6851584.3040034 1.0599979v7.4264075c0 1.1045695-.8954305 2-2 2h-5c-1.1045695 0-2-.8954305-2-2v-7.4227897c0-.3771112.10661865-.7465387.30755459-1.0656587zm-.30755459 3.4884484.62829175.2094306c1.48537005.4951233 3.11913425.2299999 4.37170825-.7094306l.2111456-.1583592c1.035421-.7765658 2.4012886-.9376816 3.5824385-.4368953l.2064159.0952545v6c0 1.1045695-.8954305 2-2 2h-5c-1.1045695 0-2-.8954305-2-2zm2-11h5" fill="none" stroke="#000" stroke-linecap="round"/></svg>