<svg height="24" viewBox="0 0 24 24" width="24" xmlns="http://www.w3.org/2000/svg"><path d="m12 21c4-1.3333333 6-3.5588235 6-6.6764706v-2.3235294h-12v2.3235294c0 3.1176471 2 5.3431373 6 6.6764706zm-4.5-14 2.7747211-.79277747c.4293016-.12265758.7252789-.51504358.7252789-.96152394v-1.24569859h2l-.4424964.88499271c-.2469892.49397849-.0467649 1.09465154.4472136 1.34164078.0652595.03262976.1338941.05801934.204678.07571531l2.7906048.6976512c2.1421954.53554885 3.4700868 2.65673819 3.0450148 4.7991358l-.0450148.2008642h-14l-.117157-.468628c-.49226734-1.96906934.66558047-3.97377871 2.617157-4.531372z" fill="none" stroke="#000" stroke-linecap="square"/></svg>