<svg height="24" viewBox="0 0 24 24" width="24" xmlns="http://www.w3.org/2000/svg"><path d="m4.90709946 11.4653026c2.1062852 1.5797673 2.5331123 4.5679033.95334501 6.6741885-.2168113.2890719-.46560775.5523205-.74145994.7848163l-.21188507.1685287c-2.1062852-1.5797673-2.53311229-4.5679032-.95334501-6.6741884.2168113-.289072.46560776-.5523206.74145995-.7848164zm3.81363783-3.81376667c2.10628521 1.57976729 2.53311231 4.56790327.95334501 6.67418847-.2168113.2890719-.46560776.5523205-.74145994.7848163l-.21188507.1685287c-2.1062852-1.5797673-2.5331123-4.5679033-.95334501-6.67418846.2168113-.28907196.46560776-.55232055.74145994-.78481634zm3.81363781-3.81376672c2.1062852 1.57976729 2.5331123 4.56790323.953345 6.67418839-.2168113.289072-.4656077.5523206-.7414599.7848164l-.2118851.1685286c-2.1062852-1.57976724-2.5331123-4.56790318-.953345-6.67418838.2168113-.28907196.4656078-.55232055.7414599-.78481634zm7.6272757 7.62753339c-1.5796072 2.1062141-4.5675555 2.5331133-6.6737696.9535062-.2891285-.2168391-.552424-.4656768-.7849541-.7415805l-.168552-.2119257c1.5796071-2.10621397 4.5675555-2.5331132 6.6737695-.9535061.2891286.2168391.5524241.4656768.7849542.7415805zm-3.8136379 3.8137668c-1.5796071 2.106214-4.5675555 2.5331132-6.67376949.9535061-.28912852-.2168391-.55242408-.4656767-.78495416-.7415805l-.16855196-.2119256c1.57960711-2.106214 4.56755551-2.5331133 6.67376951-.9535062.2891285.2168391.5524241.4656768.7849542.7415805zm-3.8136378 3.8137667c-1.5796071 2.106214-4.5675555 2.5331132-6.67376952.9535061-.28912851-.2168391-.55242407-.4656767-.78495415-.7415805l-.16855197-.2119256c1.57960713-2.106214 4.56755552-2.5331133 6.67376954-.9535061.2891285.216839.5524241.4656767.7849542.7415804zm8.4171065-16.04492324c.3723467 2.60651454-1.4386624 5.02116952-4.0449728 5.39348699-.3577378.05110367-.7198336.06132303-1.0793143.03065811l-.2690404-.03086864c-.3723175-2.60631039 1.4386916-5.02096537 4.045002-5.39328284.4471722-.06387958.901154-.06387743 1.3483255.00000638z" fill="none" stroke="#000" stroke-linecap="round"/></svg>